<svg width="368" height="368" viewBox="0 0 368 368" fill="none" xmlns="http://www.w3.org/2000/svg">
<g clip-path="url(#clip0_105_2)">
<path d="M183.73 0.0180054C82.427 0.0180054 0 82.404 0 183.733C0 285.022 82.427 367.449 183.73 367.449C285.045 367.449 367.467 285.022 367.467 183.733C367.467 82.404 285.045 0.0180054 183.73 0.0180054ZM183.73 326.518C104.987 326.518 40.932 262.466 40.932 183.734C40.932 104.968 104.987 40.917 183.73 40.917C262.482 40.917 326.537 104.969 326.537 183.734C326.536 262.466 262.481 326.518 183.73 326.518Z" fill="white"/>
<path d="M244.036 217.014C232.299 237.155 210.474 249.649 187.08 249.649C150.751 249.649 121.159 220.064 121.159 183.734C121.159 147.374 150.751 117.779 187.08 117.779C210.475 117.779 232.299 130.319 244.036 150.42L245.553 153.047H289.833L287.175 145.918C279.47 125.505 265.95 108.149 248.053 95.761C230.111 83.341 209.036 76.752 187.08 76.752C128.099 76.752 80.134 124.758 80.134 183.734C80.134 242.714 128.099 290.675 187.08 290.675C209.036 290.675 230.11 284.108 248.053 271.669C265.95 259.278 279.47 241.928 287.175 221.515L289.833 214.382H245.553L244.036 217.014Z" fill="white"/>
</g>
<defs>
<clipPath id="clip0_105_2">
<rect width="367.467" height="367.467" fill="white"/>
</clipPath>
</defs>
</svg>
