<svg width="331" height="331" viewBox="0 0 331 331" fill="none" xmlns="http://www.w3.org/2000/svg">
<g clip-path="url(#clip0_302_2)">
<path d="M324.442 129.811L283.121 96.1339V42.2749C283.121 36.2099 278.186 31.2749 272.121 31.2749H246.121C240.056 31.2749 235.121 36.2099 235.121 42.2749V57.0119L179.908 12.0129C175.914 8.75894 170.65 6.96594 165.086 6.96594C159.544 6.96594 154.305 8.74794 150.333 11.9849L5.80006 129.81C-0.766936 135.161 -0.372936 139.822 0.446064 142.124C1.26306 144.421 3.89406 148.275 12.3301 148.275H32.1211V303.222C32.1211 314.28 41.0931 323.275 52.1211 323.275H114.621C125.556 323.275 134.121 314.466 134.121 303.222V239.681C134.121 234.235 139.126 229.276 144.621 229.276H186.621C191.859 229.276 196.121 233.944 196.121 239.681V303.222C196.121 314.092 205.509 323.275 216.621 323.275H278.121C289.149 323.275 298.121 314.279 298.121 303.222V148.275H317.912C326.348 148.275 328.978 144.421 329.796 142.124C330.615 139.822 331.009 135.161 324.442 129.811Z" fill="white"/>
</g>
<defs>
<clipPath id="clip0_302_2">
<rect width="330.242" height="330.242" fill="white"/>
</clipPath>
</defs>
</svg>
