<svg width="512" height="512" viewBox="0 0 512 512" fill="none" xmlns="http://www.w3.org/2000/svg">
<path d="M90 190H157.3V257.3C157.3 268.6 166.4 277.7 177.7 277.7C189 277.7 198.1 268.6 198.1 257.3V190H265.4C276.7 190 285.8 180.9 285.8 169.6C285.8 158.3 276.7 149.2 265.4 149.2H198.1V81.8C198.1 70.5 189 61.4 177.7 61.4C166.4 61.4 157.3 70.5 157.3 81.8V149.1H90C78.7 149.1 69.6 158.2 69.6 169.5C69.6 180.8 78.8 190 90 190V190Z" fill="white"/>
<path d="M475.4 10.8H376.9C365.6 10.8 356.5 19.9001 356.5 31.2001V312H36.9C25.6 312 16.5 321.1 16.5 332.4C16.5 343.7 25.6 352.8 36.9 352.8H376.8C388.1 352.8 397.2 343.7 397.2 332.4V51.7001H475.3C486.6 51.7001 495.7 42.6 495.7 31.3C495.8 20 486.6 10.8 475.4 10.8Z" fill="white"/>
<path d="M129.1 363.4C91 363.4 60 394.2 60 432.1C60 470 91 500.8 129.1 500.8C167.2 500.8 198.2 470 198.2 432.1C198.2 394.2 167.2 363.4 129.1 363.4ZM129.1 460C113.5 460 100.8 447.5 100.8 432.1C100.8 416.7 113.5 404.2 129.1 404.2C144.7 404.2 157.4 416.7 157.4 432.1C157.4 447.5 144.7 460 129.1 460Z" fill="white"/>
<path d="M306.1 363.4C268 363.4 237 394.2 237 432.1C237 470 268 500.8 306.1 500.8C344.2 500.8 375.2 470 375.2 432.1C375.2 394.2 344.2 363.4 306.1 363.4ZM306.1 460C290.5 460 277.8 447.5 277.8 432.1C277.8 416.7 290.5 404.2 306.1 404.2C321.7 404.2 334.4 416.7 334.4 432.1C334.4 447.5 321.7 460 306.1 460Z" fill="white"/>
</svg>
